<?xml version="1.0" encoding="UTF-8" standalone="no"?>
<svg viewBox="0 0 744.09447 1052.362179" xmlns="http://www.w3.org/2000/svg">
<defs>
<linearGradient gradientUnits="userSpaceOnUse" id="linearGradient3888" x1="-634.1088" x2="-491.9154" y1="314.5827" y2="294.5827">
<stop offset="0" stop-color="#69c"/>
<stop offset="1" stop-color="#69c" stop-opacity="0"/>
</linearGradient>
</defs>
<g transform="matrix(.47215,0,0,.5214,587.72541,477.6568)">
<path d="m172.3131-249.8214c-60.0575-5.6655-75.024,30.6311-99.5391,80.9453-31.7629,60.1175-53.3017,106.1121-118.6762,108.0524-279.4335,23.7735-638.9469,6.4836-916.454,51.1841-77.4265,8.0206-147.3537,51.8543-194.4762,112.7418-44.8165,63.0476 63.1215,77.2211 105.3051,82.9688 230.6756,27.6857 463.9799,5.8304 693.5135-22.704 108.0853-14.3994 215.8619-32.337 321.695-58.8508 54.4881,4.5851 106.9915,24.8539 161.1712,27.617 47.7535-12.7573 93.8472-28.2996 142.3555-38.041 46.4187-44.5543-107.3502-61.8067-49.8794-100.1512-.2757-38.3298-16.4992-80.1994-2.7292-121.6441 3.1581-41.8519 28.3722-132.0813-42.2863-122.1185z" fill="#69c"/>
<path d="m-527.1186,79.3293c86.1127,30.835 5.8024,62.9561 148.9314,189.1943 114.115,149.5542 126.1319,166.2225 178.1693,224.5983 103.5168,136.6031 106.0145,108.8456 72.4756,153.6465-31.211,11.0651-61.3038,34.607-182.2573-36.335-71.1862-40.9999-159.1692-129.8072-238.5041-219.4389-117.6324-132.1301-194.5868-221.3512-227.307-296.8654" fill="#69c"/>
<path d="m-438.7315,244.4687c-22.283.0638-44.4177,2.0809-63.2037,5.7359-29.1084,6.7091-68.616,5.7128-94.5125,24.7379-2.9123-1.5046-5.9677-2.4236-9.0688-2.6179-17.4145-1.091-30.1396,20.4751-28.4401,48.1816s17.1948,51.0616 34.6093,52.1526c7.1002.4448 13.4384-2.8834 18.3226-8.8539 25.214,10.7056 53.4539-2.2422 80.4467-3.2651 42.3889-3.234 103.0321-27.966 142.5399-49.7406 2.1451.9328 4.3827,1.5248 6.6628,1.6472 13.0742.7023 22.6214-13.1957 21.3455-31.0327s-12.8982-32.86-25.9724-33.5624c-4.538-.2438-8.6442,1.2615-12.03,4.0887-20.8075-5.1756-45.8375-7.5425-70.6993-7.4714z" fill="#ace"/>
<path d="m-438.7315,250.4687c-22.283.0638-44.4177,2.0809-63.2037,5.7359-29.1084,6.7091-68.616,5.7128-94.5125,24.7379-2.9123-1.5046-5.9677-2.4236-9.0688-2.6179-17.4145-1.091-30.1396,20.4751-28.4401,48.1816s17.1948,51.0616 34.6093,52.1526c7.1002.4448 13.4384-2.8834 18.3226-8.8539 25.214,10.7056 53.4539-2.2422 80.4467-3.2651 42.3889-3.234 103.0321-27.966 142.5399-49.7406 2.1451.9328 4.3827,1.5248 6.6628,1.6472 13.0742.7023 22.6214-13.1957 21.3455-31.0327s-12.8982-32.86-25.9724-33.5624c-4.538-.2438-8.6442,1.2615-12.03,4.0887-20.8075-5.1756-45.8375-7.5425-70.6993-7.4714z" fill="url(#linearGradient3888)"/>
<path d="m-579.583,31.7125c64.0712-41.4581-13.4772-40.5476 71.0982-155.9594 53.136-122.3458 58.4627-135.7996 85.5641-185.499 47.9268-111.5651 58.1599-94.999 16.6004-114.0833-29.7231,1.2333-62.1441-5.561-144.0617,69.8066-48.4319,43.8903-97.1455,121.7855-138.2785,197.9488-61.2141,112.4524-100.4468,187.7437-106.1442,243.0611" fill="#69c"/>
<path d="m-559.3514-193.2029c-17.8112-3.1397-35.359-4.6755-50.1083-4.4044-22.7761,1.2674-54.4372-5.1983-73.7333,6.5088-2.4399-1.6363-4.9508-2.8186-7.4446-3.4202-14.0041-3.3782-22.5811,12.2744-19.1706,34.9684s17.5292,43.8381 31.5333,47.2163c5.7098,1.3774 10.5309-.4117 13.9937-4.5501 20.952,12.286 42.5718,5.839 64.0775,8.8762 33.6516,3.4506 80.3059-7.9044 110.2809-19.8899 1.7841,1.0631 3.617,1.8632 5.4491,2.289 10.5051,2.4416 17.1092-7.4526 14.7681-22.0887s4.3474-25.924-6.1578-28.3656c-3.6463-.8475-23.9112-4.7658-26.4089-2.9599-17.0194-7.1739-37.2068-10.6768-57.0793-14.1799z" fill="#ace"/>
<path d="m-579.583,31.7125c64.0712-41.4581-13.4772-40.5476 71.0982-155.9594 53.136-122.3458 58.4627-135.7996 85.5641-185.499 47.9268-111.5651 58.1599-94.999 16.6004-114.0833-29.7231,1.2333-62.1441-5.561-144.0617,69.8066-48.4319,43.8903-97.1455,121.7855-138.2785,197.9488-61.2141,112.4524-100.4468,187.7437-106.1442,243.0611" fill="#69c"/>
<path d="m-527.1186,79.3293c86.1127,30.835 5.8024,62.9561 148.9314,189.1943 114.115,149.5542 126.1319,166.2225 178.1693,224.5983 103.5168,136.6031 106.0145,108.8456 72.4756,153.6465-31.211,11.0651-61.3038,34.607-182.2573-36.335-71.1862-40.9999-159.1692-129.8072-238.5041-219.4389-117.6324-132.1301-194.5868-221.3512-227.307-296.8654" fill="#69c"/>
</g>
</svg>
