<?xml version="1.0" encoding="UTF-8" standalone="no"?>
<svg width="640" xmlns="http://www.w3.org/2000/svg" height="480">
 <defs>
  <filter id="filter3443" y="-.32663" width="1.2503" height="1.6533" x="-.12514">
   <feGaussianBlur id="feGaussianBlur3445" stdDeviation="1.96343"/>
  </filter>
 </defs>
 <g id="layer1">
  <path id="path3018" d="m297.83 435.49c-20.348 1.2018-25.405-9.276-42.802 2.5311-5.2626 4.0216-6.4246 12-4.9682 16.452 10.704 10.958 22.336 8.194 39.49 12.655 8.476 1.6194 15.873 2.5312 26.497 2.5312 10.798 0 17.441 4.093 28.153 0 8.3077-3.1743 15.977-2.1964 23.185-6.3277 5.6313-3.2275 8.2901-8.8888 9.9363-13.921 2.9186-8.9217-6.9878-10.263-13.248-12.656-8.0466-3.0745-21.993-1.177-28.153 0-6.6029 1.2614-12.347-6.3277-21.529-6.3277-7.4446 0-3.9448 5.0621-16.56 5.0621z" fill-rule="evenodd" fill-opacity=".728" filter="url(#filter3443)"/>
  <g id="g4221">
   <g fill-rule="evenodd">
    <g stroke-width="1.29">
     <path id="path4211" fill="#2b1100" stroke="#000" d="m261.41 447.5l-3.3162 5.0682 6.122 1.7544 1.5306-3.5087 4.0814 0.9747v3.3138l5.1016 0.5848 0.5102-2.9239 4.0813 0.5847v3.3139l5.6118-0.1948 0.2551-3.1191 6.122 0.39v2.3391l8.9278-0.195 0.5102-7.0175-38.262-1.3645h-1.2753z"/>
     <path id="path4151" fill="#008000" stroke="#002600" d="m358.6 239.51c21.923-3.3376 48.349 4.0574 61.22 17.934 17.34 12.212 18.58 28.59 18.366 46.004-2.0536 16.658-0.23593 33.241-2.0407 49.903-8.7798 16.246-40.967 23.712-61.22 18.714-25.219-21.016-53.578-78.553-57.139-108.38-2.955-15.958 24.924-18.206 40.813-24.172z"/>
     <path id="path2635" fill="#00325c" stroke="#00192e" d="m292.71 365.48c-0.53012 2.1742-3.249 7.8197-2.2825 11.512 3.4456 7.8008 3.9224 15.088 1.3694 23.025 0.058197 7.7857-3.1854 20.791 4.1086 26.514 10.392 3.1454 20.84 5.15 29.673-1.7443-4.5487-10.75-4.9065-20.55-2.739-31.746 0.10553-10.607 2.8063-20.736 2.2826-31.398-7.9155-2.2352-27.416-0.6171-32.412 3.8375z"/>
     <path id="path2637" fill="#520" stroke="#2b1100" d="m292.93 426.17c-11.598 1.7418-21.142 3.4076-30.989 8.8805-2.1917 2.0065-2.0924 3.9428-1.9368 6.4138 0.86664 2.1323 1.865 4.2208 2.5824 6.4137 10.051 0.71728 21.154 5.318 31.651 2.7352 11.025 0.10779 22.168-2.8423 31.296-7.9155 2.1089-4.7712 0.10031-20.597-0.39056-25.884-6.6369 1.5938-28.751-5.5642-34.126-1.3114-2.2686 1.795 5.4665 11.378 1.9135 10.668z"/>
     <path id="path2633" fill="#00325c" stroke="#00192e" d="m333.34 365.83c-0.53012 2.1742-3.249 7.8197-2.2826 11.512 0.74243 2.8368 1.8545 5.6688 2.739 8.3727 1.8944 7.1037-1.628 13.905-2.2826 20.932 1.8812 6.1644-0.49893 15.903 5.0216 20.234 9.605 5.5477 24.34 5.2882 29.673-1.7444-0.91391-2.7937-0.21848-4.4596-1.8261-7.326-4.6968-7.6447-2.4723-16.366-0.91293-24.42 0.21072-10.58 2.8027-20.809 2.2825-31.398-7.9154-2.2351-27.416-0.61697-32.412 3.8376z"/>
     <path id="path4209" fill="#2b1100" stroke="#000" d="m301.02 450.91l-4.6895 5.5136 5.7717 5.2377 2.5253-4.6865 4.6896 1.9297-0.7215 3.8595 5.7719 0.2756 1.0821-4.1351 5.772 0.5515 1.0822 3.0323h7.5755l0.7216-4.1351 5.7719 0.2756 1.0822 3.3082 6.1325-0.827-0.3607-4.4108 5.0504-1.1027 2.5252 3.5838 5.4112-1.1028-1.4429-3.8596 5.4111-2.2054 2.1644 3.0325 5.0505-3.0325-3.6074-3.5837 5.7718-1.9298-3.2466-6.8919-65.294 11.303z"/>
     <path id="path2641" fill="#520" stroke="#2b1100" d="m333.92 427.65c-9.2417 3.7735-23.152 5.705-32.28 11.594-1.5591 2.5089-1.496 5.4093-1.9367 8.1405 0.52624 3.6108 3.3066 5.8939 6.7788 8.1405 9.3737 2.771 19.826 0.60959 29.375-0.74011 8.3803-0.22458 18.262-1.6928 24.1-6.5757 5.0225-3.5898 6.6213-10.403 6.8893-17.286 0.21344-5.4785-1.4363-11.197-1.8531-15.176-6.7313 3.3433-25.27-2.622-32.058 0.76498-3.3989 1.6958 4.6212 11.138 0.98578 11.138z"/>
     <path id="path2647" fill="#e9d2af" stroke="#3f2d10" d="m267.14 319.08c-2.781 3.3142-2.9939 6.6866-2.7391 10.466-1.0675 7.7848 4.0691 15.15 0.91309 22.676-2.8388 4.583-4.5451 7.5727-9.5868 10.815-5.5352 0.18744-9.5635 2.3289-10.956 5.9307 3.2356 2.496 7.8604 1.6415 12.326 1.3954 1.3276 3.7972-5.9219 8.746-6.3912 13.257 6.49 5.9272 11.924-3.8856 12.326-8.3727 0.77191 4.317-2.3837 11.34-1.826 14.303 7.4376 1.1148 10.01-8.4114 10.043-13.257-0.14716 5.3125-3.613 10.635 4.5651 10.466 5.6121-3.159 4.275-9.0423 5.0217-13.954 2.2059-7.7424 6.3074-15.076 7.3041-23.025-1.1043-11.669 6.2221-26.162-0.45642-36.979-9.8238-3.7654-13.246 3.2165-20.543 6.2795z"/>
     <g stroke="#29432f" fill="#3d6348">
      <path id="path2593" d="m291.54 274.27c-9.8568 7.8019-16.421 16.669-20.659 26.858-5.2926 7.1902-10.714 13.591-11.888 21.952 14.488 2.0891 29.156-0.10568 43.523 1.4028 6.5761-13.343 5.4521-27.983 5.8104-42.039"/>
      <path id="path2581" d="m383.68 374.62c-10.244-9.6601-3.1881-24.128-1.8814-35.191-4.4852-13.835 7.1644-28.6 3.3196-42.429-1.701-8.6679-5.4651-16.472-11.164-24.03-6.5163-6.7347-15.219-10.566-26.281-10.998-14.192 1.5884-28.518 0.12466-42.61 2.4668-10.399 3.4575-17.565 9.185-18.722 17.761-0.50223 7.7418 0.1785 14.718-4.5192 21.708-1.4139 12.423-6.8072 25.037-4.5192 37.496 3.2667 14.494-4.8729 20.443-2.7715 34.899 16.368-7.1609 37.583 3.6334 56.168 2.0437 15.588-4.2585 43.311 5.3073 52.982-3.7251z"/>
     </g>
    </g>
    <g id="g4191">
     <g stroke-width="1.29" stroke="#1a1a1a" fill="#4d4d4d">
      <path id="path4179" d="m257.88 342.4l17.045-6.5912 21.145 3.9547-11.435 8.2391-26.755-5.6026z"/>
      <path id="path4181" d="m291.32 339.27l14.456-7.5799 15.751 3.1309 4.7469 11.37 9.0621 1.4831-1.0789 35.593-11.004 3.6251-31.933-47.622z"/>
      <path id="path4173" d="m258.11 342.77l24.976 4.8191 8.9942-8.2852 17.401 3.5243 2.9998 12.047 11.114 2.9174-1.2574 29.118-64.079-12.118-0.148-32.022z"/>
      <path id="path4163" d="m268.02 359.7l24.813-5.6026c7.5184 0.92261 25.533 15.371 16.182 27.354l-31.933 8.4038c-21.411-0.8533-29.451-24.772-9.062-30.155z"/>
     </g>
     <path id="path4165" d="m268.88 362.17c-14.8 1.5021-15.276 22.069 7.336 26.365 14.654-1.204 13.06-26.584-7.336-26.365z"/>
     <g stroke-width="1.29">
      <g stroke="#1a1a1a">
       <path id="path4175" fill="#333" d="m271.04 358.38c21.337 3.7175 24.343 21.574 14.24 29.66l17.045-5.1082c6.1182-8.443-2.7926-24.668-17.045-28.342l-14.24 3.79z"/>
       <g fill="none">
        <path id="path4183" d="m309.23 342.56l11.867-7.7446"/>
        <path id="path4185" d="m313.54 354.76l12.946-8.5686"/>
        <path id="path4187" d="m335.77 348.17l-12.514 9.2278"/>
       </g>
      </g>
      <path id="path4189" fill="#ccc" stroke="#808080" d="m293.48 341.74l-5.8257 6.0969 20.929 5.1083-1.0789-7.9095-14.024-3.2956z"/>
     </g>
     <path id="path4207" fill="#e6e6e6" d="m269.96 363.28c-9.3888 3.1562-19.244 16.831 5.1715 22.506 14.654-1.204-18.325-5.3566-5.1715-22.506z"/>
    </g>
    <g stroke-width="1.29">
     <path id="path4205" fill="#1a1a1a" stroke="#000" d="m322.66 350.29c12.071-27.449 22.954-55.579 27.416-87.389l5.0504-1.1027c-3.9504 23.388-6.1124 44.641-24.891 85.735l-7.5756 2.7568z"/>
     <path id="path2645" fill="#e9d2af" stroke="#3f2d10" d="m363.81 334.65c-9.1634 6.0155-13.772 9.2127-25.87 9.9067-5.6055-0.99734-3.4733-7.1534-10.111-6.7504-3.8055 2.8093-2.3671 6.5918-0.99985 10.232-7.5781 0.42581-15.862-1.6351-18.858 5.8227 4.2234 2.0009 10.163 1.985 14.642 1.0022-4.2372 2.3951-15.45 3.6031-6.7183 8.3829 5.5443 1.7211 8.8367-1.8744 13.538-3.783-3.0955 4.8389-10.122 9.1 1.2674 8.3748 4.1992-1.4776 5.7933-4.1878 7.6599-7.1874 3.646-2.2341 8.661-3.0605 13.067-4.3809 11.431-0.066772 21.668-3.3041 32.088-6.614 4.0504-7.7729 17.999-8.1752 22.599-15.28 2.5485-2.5627-7.2172-18.117-5.6978-20.981-2.7814-7.889-26.093-1.0226-36.654-0.30301-13.609 1.3904 7.609 15.947 0.047821 21.558z"/>
     <path id="path2585" fill="#3d6348" stroke="#29432f" d="m349.62 288.33c0.46985 7.091 2.8062 13.593 5.8105 20.228 2.4266 6.7956 3.1319 13.724 3.2279 20.721 15.355-1.2459 31.79-6.1755 47.129-9.8672-1.6103-5.7782-3.6915-11.451-5.1647-17.268-2.4392-7.6581-10.429-12.13-14.849-18.748-5.3943-5.7664-12.728-8.4903-21.951-6.4138"/>
     <path id="path2550" fill="#e9d2af" stroke="#3f2d10" d="m312.62 143.71c-38.167-0.17073-53.265 19.073-53.774 44.104 0 5.2362 3.167 15.542 4.865 20.732-0.7904 10.22-4.1037 17.942-0.15668 27.917 4.5902 14.113 16.995 21.625 34.863 24.668 15.862-0.23792 37.178-4.3545 49.066-12.827 17.021-10.643 22.145-28.658 28.406-44.403 2.2257-15.04-7.3228-29.388-12.912-43.416-7.7834-15.351-31.325-18.923-50.357-16.774z"/>
     <g stroke="#120a04" fill="#28170b">
      <path id="path2554" d="m263.55 163.45c-2.3542-27.525 95.885-36.614 101.01-14.851 27.597 1.6194 27.736 55.643 20.881 74.234-28.471-0.22172-13.667-25.429-30.219-31.755-7.0522-1.3474-9.4088 2.7843-15.495 3.9469-12.89-6.3313 0.14664-25.811-20.659-32.562-10.159 3.1376-23.036 7.9798-33.572 0-9.0051 0-14.282 3.331-21.95 0.98676z"/>
      <path id="path2556" d="m381.35 218.93c-5.7686 0 4.1665 15.696 5.1649 18.748 1.5477 4.731 12.753 11.678 16.786 15.788 3.4254 3.4903 18.15 0.17499 21.95-0.98668 6.3958-1.9551 13.843 0.71149 16.786 2.9602 9.182 7.0168 3.6914-3.2389 1.2912-6.9072-1.885-2.8811-10.498-6.7568-14.203-8.8805-6.2989-3.6101-7.5817-7.7674-12.912-11.841-5.0871-3.8875-11.184-3.947-18.077-3.947-4.3056 0-11.52-4.1288-16.786-4.9336z"/>
     </g>
     <path id="path2619" fill="#e9d2af" stroke="#3f2d10" d="m302.55 270.29c6.3499 12.795 37.807 8.5771 48.958-3.598-4.4486-6.9142-7.5995-15.218-17.347-18.839-8.2784-0.72228-16.313 1.0368-24.195 2.7908-6.348 3.7834-8.835 14.786-7.4149 19.646z"/>
     <path id="path2558" fill="#28170b" stroke="#120a04" d="m259.24 254.19c2.3954 3.6611 7.2624 5.9306 13.353 5.9306 9.5921 2.1136 18.873 5.4025 28.418 7.9366 12.533 2.4612 21.666-2.4272 30.929-7.9366 15.608-6.1672 31.78-16.665 35.037-30.438 0.91312-5.7703-2.0599-5.7562-6.3911-4.7096-7.195 5.6109-16.208 11.54-26.021 14.478-12.432 2.6988-22.281 3.9499-25.793-6.9772-4.1234-9.0504-17.438-11.649-28.418-13.78-23.339-0.77052-28.431 22.496-21.114 35.497zm20.885-24.508c11.262-3.6342 34.729 18.5 14.38 17.618-8.5492-2.1758-10.327-6.4046-15.407-0.95944-18.118 4.1968-10.974-13.18 1.0272-16.658z"/>
     <g stroke="#333" fill="#fff">
      <path id="path2565" d="m292.34 189.22c-4.9885 8.3685-1.1287 13.275 9.5542 12.066 3.2816 1.104 10.119-5.0133 8.5495-9.0704 1.1745-10.896-11.186-11.133-18.104-2.9953z"/>
      <path id="path2567" d="m270.43 183.64c-8.5961 1.4752-12.63 6.4924-10.956 13.954 9.9241 14.005 28.797-6.145 10.956-13.954z"/>
     </g>
     <g stroke="#3f2d10">
      <g fill="#e9d2af">
       <path id="path2569" d="m283.21 194.1c-1.5177 6.7277-10.039 9.8596-14.608 13.257-2.3345 7.4651-0.9324 12.821 10.043 11.164 7.6692-2.7229 10.748-7.2398 11.869-13.257"/>
       <path id="path2571" d="m347.12 195.5c21.414-6.5014 17.64 17.734 1.826 15.35"/>
       <path id="path2573" d="m351.23 199.33c3.1082-4.1666 11.294 3.2927 0 7.326"/>
      </g>
      <path id="path2575" fill="none" d="m274.08 238.76c3.5237 1.1419 13.509 0.53397 19.63 0"/>
     </g>
     <g stroke="#000">
      <path id="path2577" d="m302.43 192.33c1.4116-0.99533-6.8551-2.8527-6.3912 2.7909 0.35956 4.3743 7.2781 5.4159 9.5867 4.1863 4.6369-2.4694-0.95908-7.8499-3.1955-6.9772z"/>
      <path id="path2579" d="m271.77 192.25c1.6702-2.6478-7.9511-0.52382-5.4781 5.5818 1.7067 4.2137 7.7596 1.6213 8.2172 1.3955 6.1368-3.0292 1.1742-10.751-2.7391-6.9772z"/>
     </g>
     <g stroke="#002600">
      <g fill="#008000">
       <path id="path4155" d="m387.17 256.66c-32.961-4.0829-64.907 26.186-30.1 67.836l1.5305-5.848c-20.982-36.472 6.9906-61.249 34.691-53.411l-6.122-8.577z"/>
       <path id="path4157" d="m286.66 266.02c-0.41092-0.19635-34.283 21.644-9.6931 63.158l1.5305-8.1871c-10.292-31.992 17.123-48.575 16.836-53.411l-8.673-1.5595z"/>
      </g>
      <g fill="none">
       <path id="path4159" d="m401.45 304.61l20.917-3.5088 2.5509 48.733-22.958 1.9493-1.0204-11.696"/>
       <path id="path4161" d="m389.21 280.83c16.474 2.4843 31.806-1.1398 46.935-5.848"/>
      </g>
     </g>
     <path id="path4203" fill="#1a1a1a" stroke="#000" d="m262.06 340.36c-5.2884-27.145 13.644-50.587 31.745-74.157l5.7718 1.9297c-17.289 22.598-40.171 44.769-29.942 69.47l-7.5755 2.7568z"/>
     <g stroke="#2b1100" fill="none">
      <path id="path4213" d="m340.7 418.24l-4.87 3.7216 6.4934 0.4135"/>
      <path id="path4215" d="m341.6 422.65l-4.87 3.7216 6.4933 0.4136"/>
      <path id="path4217" d="m298.67 415.76l-4.87 3.7216 6.4933 0.4135"/>
      <path id="path4219" d="m301.38 421.14l-4.87 3.7216 6.4934 0.4136"/>
     </g>
    </g>
   </g>
  </g>
 </g>
</svg>
